#format: frame checksums
#version: 1
#hash: MD5
#tb 0: 1001/30000
#stream#, dts,        pts, duration,     size, hash
0,          0,          0,        1,    67872, 1d318f05310f6d40646f23c62c7eafe4
0,          1,          1,        1,    67872, 42870bd73e1a0c5d84b986db3d24f0f0
0,          2,          2,        1,    67872, afaac676150286143c6fec7992a81467
0,          3,          3,        1,    67872, 128f84400c272628e802c2369b6bf548
0,          4,          4,        1,    67872, 9adc24d69f12349d8b17c84f5c111767
0,          5,          5,        1,    67872, b33d2f7a1955248652701f2ade8ab55d
0,          6,          6,        1,    67872, b8acc23721097fce6c8835f5fcfaa6ee
0,          7,          7,        1,    67872, b63bf9a08e4dc5879bbd91efaec95960
0,          8,          8,        1,    67872, 96e8fe29935266f6bd486b99f917eabc
0,          9,          9,        1,    67872, 54be14f8dde6857867cd4581f8557044
